<svg aria-hidden="true" style="position: absolute; width: 0; height: 0; overflow: hidden;" version="1.1" xmlns="http://www.w3.org/2000/svg" xmlns:xlink="http://www.w3.org/1999/xlink">
<defs>
<symbol id="icon-arrow" viewBox="0 0 32 32">
<path d="M16.003 31.992c-0.005 0-0.010 0-0.016 0-8.829 0-15.987-7.158-15.987-15.987 0-0.001 0-0.002 0-0.003v0c0-0.005 0-0.012 0-0.018 0-8.828 7.156-15.984 15.984-15.984 0.005 0 0.009 0 0.014 0h-0.001c0.002 0 0.005 0 0.008 0 8.824 0 15.977 7.153 15.977 15.977 0 0.005 0 0.009 0 0.014v-0.001c0 0.003 0 0.007 0 0.010 0 8.822-7.152 15.974-15.974 15.974-0.006 0-0.011 0-0.016 0h0.001zM24.536 16l-8.938-8.073v5.159h-6.224v5.826h6.221v5.151l8.94-8.073z"></path>
</symbol>
</defs>
</svg>
